# xmcd
#
# Track frame offsets:
#	150
#	25953
#	44257
#	100577
#	136709
#
# Disc length: 2319 seconds
#
# Revision: 1
# Processed by: cddbd v1.5.1PL2 Copyright (c) Steve Scherf et al.
# Submitted via: EasyCDDAExtractor 9.0.0.1
#
DISCID=33090d05
DTITLE=Whitesnake - Erlangen 03-06-79 Disc 2
DYEAR=1979
DGENRE=Hard Rock
TTITLE0=Belgian Tom's Hat Trick
TTITLE1=Lie Down
TTITLE2=Jon Lord Solo - Breakdown - Whitesnake Boogie 
TTITLE3=Rock Me Baby
TTITLE4=Take Me With You 
EXTD=
EXTT0=
EXTT1=
EXTT2=
EXTT3=
EXTT4=
PLAYORDER=
